PathFileType	4	(X/Y/Z)	49_1_rein_52_p1_0-256.trc
DataRate	CameraRate	NumFrames	NumMarkers	Units	OrigDataRate	OrigDataStartFrame	OrigNumFrames
44.0	44.0	4	27	m	44.0	0	257
Frame#	Time	RHip			RKnee			RAnkle			RBigToe			RSmallToe			RHeel			LHip			LKnee			LAnkle			LBigToe			LSmallToe			LHeel			Neck			Head			Nose			RShoulder			RElbow			RWrist			RThumb			RIndex			RPinky			LShoulder			LElbow			LWrist			LThumb			LIndex			LPinky			
		X1	Y1	Z1	X2	Y2	Z2	X3	Y3	Z3	X4	Y4	Z4	X5	Y5	Z5	X6	Y6	Z6	X7	Y7	Z7	X8	Y8	Z8	X9	Y9	Z9	X10	Y10	Z10	X11	Y11	Z11	X12	Y12	Z12	X13	Y13	Z13	X14	Y14	Z14	X15	Y15	Z15	X16	Y16	Z16	X17	Y17	Z17	X18	Y18	Z18	X19	Y19	Z19	X20	Y20	Z20	X21	Y21	Z21	X22	Y22	Z22	X23	Y23	Z23	X24	Y24	Z24	X25	Y25	Z25	X26	Y26	Z26	X27	Y27	Z27	
0	0.0	0.39235518108588446	0.6177021703519214	0.7767158161372986	0.3590679236843411	0.8310280626318097	1.1883159277012911	0.3449626768015933	1.0645184901036735	1.601004823233843	0.3039199464134499	0.8328678321807763	1.6654977436312357	0.37224277678508305	0.8438746022370889	1.662157989729633	0.329446084618113	1.169916722839864	1.6353889907000012	0.16122577838231322	0.6476076920383642	0.7714092643781606	0.17880162949692924	0.8480883043505028	1.181803375230007	0.18148808332231353	1.0629745390708978	1.5760001917895454	0.16032135980124954	0.8340777707338337	1.643615608555877	0.11335911503206608	0.8983939114728559	1.6476740557060499	0.20042685538953472	1.1448721094982015	1.6296127896462538	0.28049041025761934	0.4520607329869399	0.24729251455501697	0.2819287910247714	0.3425075305280756	0.021027439813601098	0.2811113805882285	0.3307144377029735	0.1733959496036934	0.44055758565636904	0.5109314154075472	0.3066081893726436	0.4984328826247643	0.5205887151012214	0.5601643441375858	0.3474344600360214	0.4565310114358052	0.7457935862275179	0.23241513720974144	0.4557209935636892	0.7867294976113368	0.22304977323229824	0.48076667526713635	0.8200364812882918	0.24393663976827337	0.4672503276777503	0.8387421675369716	0.1133992232556632	0.4852317077164448	0.28986324433253674	0.06689264544976312	0.503298671911467	0.5254936972125289	0.19999767915086777	0.4083846473097747	0.7352218263526433	0.27261848351668694	0.3955470993107001	0.794958743037124	0.2832145019615329	0.4091538276396256	0.8243582351837786	0.25739689740115645	0.49306767485901276	0.8329191521375645
1	0.022727272727272728	0.3882255645514311	0.6136511789997251	0.769228980947886	0.3582312779179979	0.828028037950649	1.184230744808598	0.34293341095852314	1.0246739405917946	1.5895193864403623	0.3005633667620636	0.8218282632031042	1.662621076575561	0.3680833266334481	0.8315477943881681	1.6594079154639831	0.3234124719497901	1.1476361035331668	1.6267295533547486	0.16571858424372557	0.6298979358775264	0.7680807893292159	0.17902472933821856	0.848052691052081	1.1858478083373738	0.1779240236168243	1.045962875615519	1.5728317234734677	0.156421538298829	0.820621618514416	1.6482829102663352	0.10891502723260889	0.8971476947410978	1.64723645635825	0.20119355689430105	1.1456454491645283	1.6297011953046507	0.280523167499162	0.4520972588081849	0.24723730114434606	0.28191596200925767	0.3428439399841635	0.024226937631903277	0.2767047667097321	0.3296353689009541	0.17380545410814796	0.4424702912541851	0.49440692985140866	0.3028325521060572	0.498275360539549	0.5201478612959517	0.556855065089606	0.34744703668999694	0.45659468669922615	0.745756622104548	0.23280434166735944	0.455124343750235	0.7874587595858521	0.22688505539263873	0.47073984004128205	0.8239956076456455	0.24394063633086296	0.46731781365962505	0.8387441151141115	0.11645927228250477	0.4972642278558688	0.287090232611932	0.0668632172956029	0.5031958499325734	0.5255317255054425	0.20005723348344934	0.40806013859388585	0.7352496079335655	0.2720583002193948	0.39679760020225885	0.7989187506788733	0.2800257620436355	0.42441010421843683	0.8308704665501973	0.25752251451607466	0.4929605493939205	0.8328095120032384
2	0.045454545454545456	0.39222174168741647	0.6137723074765882	0.7691673678837531	0.36003228340561483	0.8297150613322796	1.1840466424180878	0.339189819874057	1.027020588266396	1.5940321493024285	0.2995984910228615	0.819815817137448	1.662690697909438	0.36719975600256016	0.8299464967261406	1.659760026450833	0.32450941245721787	1.151994243151853	1.6320159645443502	0.1657665948931968	0.6299269791550122	0.7681483872256575	0.17893640856802254	0.848323622998166	1.1859494637963737	0.18166483116160656	1.062862718981178	1.5759103026407648	0.16037234521836635	0.833664509930733	1.647974586887038	0.10884004049065148	0.8975600301979337	1.6476471695375758	0.20373199219339858	1.164183429347246	1.638622755152018	0.28050454699944244	0.45214086711107465	0.24729929295669212	0.28188672337788445	0.34296358676372785	0.024322240458515786	0.2767191243289919	0.32961492238590606	0.1738017360900822	0.4424610561508947	0.4944709570028876	0.3028540301825435	0.49830506494419124	0.5201261853628175	0.5567858918083883	0.34754019343254655	0.45634187071447624	0.7457317732293969	0.23269628863895855	0.4314138817894436	0.7879443281956616	0.22315276594356653	0.456652503164429	0.8210953280212073	0.2447084542640368	0.46703832556061753	0.8366827596537296	0.11342884340414738	0.485180206553058	0.28991751204595695	0.06683869533021679	0.5032328576206361	0.5256097754771354	0.20007883873227053	0.40844596386142784	0.7351669976520191	0.27247712037162086	0.39590182274548985	0.7952313379254251	0.2799526726072831	0.42457062823675074	0.8309168246757536	0.25728559983558263	0.4929767479632607	0.829660497357139
3	0.06818181818181818	0.39226811183183763	0.6140894830655591	0.7693386916438575	0.35902108554496076	0.8312435750410748	1.1885256978726235	0.3378879250558864	1.0240377914291252	1.584960533478864	0.2992110716980696	0.8191790651714135	1.6586780317049872	0.3716818214369016	0.8432391264183943	1.662199418957928	0.32821459184612883	1.1655888127306555	1.6296386410489334	0.16146391352333445	0.643892762895371	0.7674933570050141	0.17884786388469404	0.8484076116357242	1.1860266262812078	0.18149284563548382	1.0624553531084644	1.575840418940892	0.15746314176167836	0.8191979332437973	1.644699998786193	0.1137132863083038	0.8982351002016271	1.6474572115343153	0.20091737945624877	1.1464803041420948	1.630375103709154	0.28069313725666717	0.45299051725359946	0.2503050222214678	0.2819468732769293	0.34291395676657005	0.024277080234857588	0.2800691488644242	0.3397193675225241	0.17075374679699812	0.44003541085372366	0.5079251263775179	0.2998629901909371	0.49762905629708526	0.517885355666118	0.5532834349341075	0.34750271251620607	0.45612298309259497	0.7458471425142141	0.23583293458411936	0.4442453451001765	0.7913986354268601	0.2267437122400421	0.47067798706898656	0.8238530573776908	0.24447586251417566	0.467165066492007	0.8424311154669323	0.11650352102086001	0.4972788059827995	0.2870680272684543	0.06689361986749559	0.5032860203151521	0.5254214524581082	0.19988502553152307	0.40833309852650834	0.7352761672114443	0.2681016814642825	0.39494131014455935	0.795458350504615	0.27208502535817325	0.41251244219904815	0.8317350375992555	0.26128464083797004	0.4940634650518023	0.8327566846781581
